<svg width="800" height="600" xmlns="http://www.w3.org/2000/svg">
 <g id="Layer_1">
  <title>Layer 1</title>
  <path d="m358,87c0,1 1.91901,2.107 1,6c-1.0275,4.3525 -13.58749,12.86314 -38,24c-28.5538,13.02611 -60.18909,23.47578 -83,32c-15.13336,5.65518 -19.4588,7.69344 -20,9c-0.38269,0.92387 2,2 13,2c24,0 50.93799,-6.2345 77,-13c27.93582,-7.25194 37.90778,-8.49623 42,-9c2.97751,-0.36655 4.29291,-0.70711 5,0c0.70709,0.70711 1.69803,2.86925 -2,8c-5.84711,8.11243 -27.10529,15.61237 -45,31c-18.22891,15.67502 -33.29462,34.32036 -47,62c-7.74937,15.65079 -10.49963,27.97119 -11,41c-0.53728,13.98969 -1.97978,31.79678 -4,44c-1.96669,11.87991 -3,22 -3,26c0,1 0.76537,3.15225 0,5c-0.5412,1.30655 -1,0 -3,-1l0,-3l0,-3" id="svg_1" stroke="#000" fill="none"/>
  <path d="m267,265c1,0 3.95001,-0.11942 11,-3c17.87842,-7.30498 48.21683,-18.2393 74,-26c27.25272,-8.20303 49,-14 62,-17l9,-2l1,-1" id="svg_2" stroke="#000" fill="none"/>
  <path d="m386,199c0,1 0.43048,4.133 -1,8c-1.55161,4.19435 -3.23318,7.93298 -6,18c-3.27805,11.92705 -8.38504,26.28337 -16,42c-7.41254,15.29883 -14.56833,29.20807 -21,42c-5.62854,11.19461 -11,18 -12,20l0,1l0,1" id="svg_3" stroke="#000" fill="none"/>
  <path d="m414,273c0,2 -0.1391,3.97418 -1,9c-1.19385,6.96957 -4,14 -4,20c0,5 0,13 0,17c0,3 -0.09222,7.49622 4,8c2.97751,0.36655 12,0 20,0c10,0 18.20444,0.95453 25,-1c9.46512,-2.72235 15.70923,-9.63992 19,-17c2.58148,-5.77371 4.69254,-12.186 6,-14c0.8269,-1.14728 1,-3 0,-5l-3,-2l-6,-6" id="svg_4" stroke="#000" fill="none"/>
  <path d="m463,276c-2,0 -2,1 -2,3c0,2 -1,5 -1,8c0,4 -0.54831,11.12668 -3,19c-2.54022,8.15765 -8.31949,16.65088 -16,24c-4.6264,4.42679 -12.90143,10.16742 -23,16c-8.91547,5.14923 -13.69345,7.4588 -15,8c-0.92389,0.38269 -2,0 -3,0l0,-3l0,-1" id="svg_5" stroke="#000" fill="none"/>
  <path d="m443,174c1,0 1.34946,0.38458 7,4c5.39359,3.45099 13,9 19,12l3,2l1,1" id="svg_6" stroke="#000" fill="none"/>
 </g>
</svg>